# xmcd
#
# Track frame offsets:
#	150
#	11343
#	22543
#	46513
#	75775
#	88708
#	100108
#	112390
#	144165
#	164568
#	181570
#	202665
#	225495
#	250283
#	281078
#
# Disc length: 4169
#
# Revision: 4
# Processed by: cddbd v1.5.1PL0 Copyright (c) Steve Scherf et al.
# Submitted via: ExactAudioCopy v0.95a5
# Normalized: r3:DSETVAR1
#
DISCID=a210470f
DTITLE=Various Artist - Savoy Jazz Sampler
DYEAR=1992
DGENRE=Jazz
TTITLE0=Charlie Parker - Constellation
TTITLE1=Charlie Parker - Barbados
TTITLE2=Curtis Fuller - Five Spot After Dark
TTITLE3=Milt Jackson - You Leave Me Breathless
TTITLE4=Art Pepper - Surf Ride
TTITLE5=Stan Getz - Opus De Bop
TTITLE6=Fats Navarro - Nostalgia
TTITLE7=Cannonball Adderly - Caribbean Cutie
TTITLE8=Nat Adderly - I Married An Angel
TTITLE9=Hank Mobley - When I Fall In Love
TTITLE10=Art Blakey and The Jazz Messengers - Mirage
TTITLE11=Joe Wilder - Prelude To A Kiss
TTITLE12=Duke Jordan - You'd Be So Nice To Come Home To
TTITLE13=George Wallington - Dance of the Infidels
TTITLE14=Lee Morgan - Hank's Shout
EXTD=AAD\nGES-9960 YEAR: 1992
EXTT0=Charlie Parker
EXTT1=Charlie Parker
EXTT2=Curtis Fuller
EXTT3=Milt Jackson
EXTT4=Art Pepper
EXTT5=Stan Getz
EXTT6=Fats Navarro
EXTT7=Cannonball Adderley
EXTT8=Nat Adderley
EXTT9=Hank Mobley
EXTT10=Art Blakely
EXTT11=Joe Wilder
EXTT12=Duke Jordan
EXTT13=George Wallington
EXTT14=Lee Morgan
PLAYORDER=
